<svg width="9" height="9" viewBox="0 0 9 9" fill="none" xmlns="http://www.w3.org/2000/svg">
<g id="ant-design:star-filled">
<path id="Vector" d="M7.51484 3.29385L5.65095 3.02297L4.81774 1.3338C4.79499 1.28755 4.75755 1.25011 4.7113 1.22735C4.59531 1.17009 4.45436 1.21781 4.39637 1.3338L3.56316 3.02297L1.69928 3.29385C1.64789 3.30119 1.60091 3.32542 1.56494 3.36212C1.52145 3.40682 1.49749 3.46695 1.49831 3.52931C1.49914 3.59167 1.52469 3.65114 1.56934 3.69467L2.91789 5.00945L2.59929 6.866C2.59182 6.90918 2.59659 6.9536 2.61308 6.99421C2.62957 7.03482 2.65711 7.07 2.69257 7.09575C2.72803 7.12151 2.77 7.13681 2.81372 7.13993C2.85744 7.14305 2.90115 7.13385 2.93991 7.11339L4.60706 6.23687L6.2742 7.11339C6.31972 7.13761 6.37257 7.14569 6.42323 7.13688C6.55096 7.11486 6.63685 6.99373 6.61483 6.866L6.29623 5.00945L7.64477 3.69467C7.68148 3.6587 7.7057 3.61172 7.71305 3.56033C7.73287 3.43186 7.64331 3.31294 7.51484 3.29385Z" fill="#FEA250"/>
</g>
</svg>
