<svg width="70" height="78" viewBox="0 0 70 78" fill="none" xmlns="http://www.w3.org/2000/svg">
<g id="Illustration/Free">
<g id="Group 1287">
<path id="Union" fill-rule="evenodd" clip-rule="evenodd" d="M24.9419 18.8429C25.2505 18.1731 25.6119 17.6527 25.8507 17.3784C25.8554 18.0255 25.7557 18.6059 25.6013 19.1103C26.0765 19.3396 26.5705 19.6606 27.0424 20.1036C26.6787 20.0926 26.0512 20.0045 25.3499 19.776C25.0266 20.4889 24.618 20.9811 24.3501 21.2102C24.3682 20.6103 24.4945 20.0353 24.6718 19.5167C24.1708 19.2947 23.6631 18.9969 23.2105 18.6029C23.5606 18.5619 24.1993 18.5962 24.9419 18.8429Z" fill="url(#paint0_linear_643_2868)"/>
<path id="Union_2" fill-rule="evenodd" clip-rule="evenodd" d="M22.5031 12.1327C22.7085 11.6869 22.949 11.3406 23.108 11.1579C23.1111 11.5886 23.0447 11.975 22.942 12.3107C23.2584 12.4633 23.5871 12.677 23.9013 12.9719C23.6592 12.9646 23.2415 12.906 22.7746 12.7539C22.5595 13.2284 22.2875 13.556 22.1091 13.7085C22.1212 13.3092 22.2052 12.9265 22.3233 12.5812C21.9898 12.4334 21.6519 12.2353 21.3507 11.973C21.5837 11.9457 22.0088 11.9685 22.5031 12.1327Z" fill="url(#paint1_linear_643_2868)"/>
<path id="Union_3" fill-rule="evenodd" clip-rule="evenodd" d="M15.9024 5.46222C16.2109 4.79242 16.5723 4.2721 16.8112 3.99776C16.8159 4.64482 16.7161 5.22523 16.5617 5.72968C17.037 5.95892 17.5309 6.27994 18.0029 6.72292C17.6392 6.71192 17.0117 6.62384 16.3103 6.39537C15.9871 7.10825 15.5784 7.60046 15.3105 7.82961C15.3287 7.22967 15.4549 6.65469 15.6322 6.13603C15.1312 5.914 14.6236 5.61627 14.171 5.22228C14.5211 5.18124 15.1597 5.21551 15.9024 5.46222Z" fill="url(#paint2_linear_643_2868)"/>
<path id="Union_4" fill-rule="evenodd" clip-rule="evenodd" d="M14.8566 20.4805C15.3105 19.4949 15.8423 18.7293 16.1937 18.3257C16.2006 19.2778 16.0538 20.1319 15.8266 20.8742C16.5255 21.2114 17.2518 21.6835 17.9458 22.335C17.411 22.3188 16.4882 22.1893 15.4567 21.8534C14.9812 22.9021 14.38 23.6261 13.9859 23.9632C14.0126 23.0807 14.1983 22.2349 14.4591 21.472C13.7217 21.1452 12.9744 20.7071 12.3083 20.1272C12.8235 20.0668 13.7635 20.1172 14.8566 20.4805Z" fill="url(#paint3_linear_643_2868)"/>
<circle id="Ellipse 199" cx="17.5869" cy="13.7355" r="0.397721" transform="rotate(21.3865 17.5869 13.7355)" fill="#2F235A"/>
<circle id="Ellipse 200" cx="27.4347" cy="8.73467" r="0.397721" transform="rotate(21.3865 27.4347 8.73467)" fill="#FE9076"/>
<circle id="Ellipse 201" cx="8.53112" cy="10.9073" r="0.397721" transform="rotate(21.3865 8.53112 10.9073)" fill="#FFA400"/>
<circle id="Ellipse 202" cx="17.0716" cy="26.9214" r="0.397721" transform="rotate(21.3865 17.0716 26.9214)" fill="#23BB86"/>
<path id="Vector 95" d="M27.133 6.83371C26.746 5.35588 25.3494 1.97603 22.8584 0.279237" stroke="#FE9076" stroke-width="0.346178" stroke-linecap="round"/>
<path id="Vector 96" d="M7.35746 9.30277C6.39465 8.11673 3.72668 5.61556 0.757246 5.0992" stroke="#FFA400" stroke-width="0.346178" stroke-linecap="round"/>
<path id="Vector 97" d="M15.3795 27.4994C14.5263 27.8106 12.3784 28.8021 10.6126 30.2789" stroke="#23BB86" stroke-width="0.346178" stroke-linecap="round"/>
</g>
<g id="Group 1288">
<path id="Union_5" fill-rule="evenodd" clip-rule="evenodd" d="M44.6512 18.843C44.3427 18.1732 43.9813 17.6528 43.7424 17.3785C43.7378 18.0256 43.8375 18.606 43.9919 19.1104C43.5166 19.3397 43.0227 19.6607 42.5508 20.1037C42.9144 20.0927 43.5419 20.0046 44.2433 19.7761C44.5665 20.489 44.9752 20.9812 45.2431 21.2103C45.2249 20.6104 45.0987 20.0354 44.9214 19.5168C45.4224 19.2947 45.93 18.997 46.3826 18.603C46.0325 18.562 45.3939 18.5963 44.6512 18.843Z" fill="url(#paint4_linear_643_2868)"/>
<path id="Union_6" fill-rule="evenodd" clip-rule="evenodd" d="M47.0901 12.1325C46.8848 11.6867 46.6442 11.3404 46.4852 11.1578C46.4821 11.5885 46.5485 11.9748 46.6513 12.3106C46.3349 12.4632 46.0061 12.6768 45.6919 12.9717C45.934 12.9644 46.3517 12.9058 46.8186 12.7537C47.0338 13.2282 47.3058 13.5558 47.4841 13.7084C47.472 13.309 47.388 12.9263 47.2699 12.581C47.6034 12.4333 47.9413 12.2351 48.2425 11.9729C48.0095 11.9455 47.5844 11.9684 47.0901 12.1325Z" fill="url(#paint5_linear_643_2868)"/>
<path id="Union_7" fill-rule="evenodd" clip-rule="evenodd" d="M53.6917 5.4621C53.3832 4.79229 53.0218 4.27198 52.7829 3.99763C52.7783 4.6447 52.878 5.22511 53.0324 5.72956C52.5571 5.9588 52.0632 6.27982 51.5913 6.7228C51.9549 6.7118 52.5824 6.62371 53.2838 6.39525C53.607 7.10813 54.0157 7.60034 54.2836 7.82949C54.2654 7.22955 54.1392 6.65457 53.9619 6.13591C54.4629 5.91388 54.9705 5.61614 55.4231 5.22215C55.073 5.18111 54.4344 5.21539 53.6917 5.4621Z" fill="url(#paint6_linear_643_2868)"/>
<path id="Union_8" fill-rule="evenodd" clip-rule="evenodd" d="M54.7375 20.4805C54.2835 19.4949 53.7517 18.7293 53.4003 18.3257C53.3934 19.2778 53.5402 20.1319 53.7674 20.8741C53.0685 21.2114 52.3422 21.6835 51.6482 22.335C52.183 22.3188 53.1058 22.1893 54.1373 21.8534C54.6129 22.902 55.214 23.6261 55.6081 23.9632C55.5814 23.0807 55.3957 22.2349 55.1349 21.4719C55.8723 21.1452 56.6196 20.7071 57.2857 20.1272C56.7705 20.0668 55.8305 20.1172 54.7375 20.4805Z" fill="url(#paint7_linear_643_2868)"/>
<circle id="Ellipse 199_2" cx="0.397721" cy="0.397721" r="0.397721" transform="matrix(-0.931142 0.364658 0.364658 0.931142 52.2316 13.2201)" fill="#2F235A"/>
<circle id="Ellipse 200_2" cx="0.397721" cy="0.397721" r="0.397721" transform="matrix(-0.931142 0.364658 0.364658 0.931142 42.3839 8.2193)" fill="#FE9076"/>
<circle id="Ellipse 201_2" cx="0.397721" cy="0.397721" r="0.397721" transform="matrix(-0.931142 0.364658 0.364658 0.931142 61.2875 10.3919)" fill="#FFA400"/>
<circle id="Ellipse 202_2" cx="0.397721" cy="0.397721" r="0.397721" transform="matrix(-0.931142 0.364658 0.364658 0.931142 52.747 26.4061)" fill="#23BB86"/>
<path id="Vector 95_2" d="M42.4608 6.83371C42.8477 5.35588 44.2443 1.97603 46.7353 0.279237" stroke="#FE9076" stroke-width="0.346178" stroke-linecap="round"/>
<path id="Vector 96_2" d="M62.2358 9.30277C63.1986 8.11673 65.8666 5.61556 68.836 5.0992" stroke="#FFA400" stroke-width="0.346178" stroke-linecap="round"/>
<path id="Vector 97_2" d="M54.2141 27.4994C55.0674 27.8106 57.2153 28.8021 58.9811 30.2789" stroke="#23BB86" stroke-width="0.346178" stroke-linecap="round"/>
</g>
<g id="Group 1277">
<rect id="Rectangle 320" x="13.4369" y="48.7954" width="42.2141" height="29.181" fill="url(#paint8_linear_643_2868)"/>
<g id="Mask Group">
<mask id="mask0_643_2868" style="mask-type:alpha" maskUnits="userSpaceOnUse" x="13" y="48" width="43" height="30">
<rect id="Rectangle 322" x="13.4369" y="48.7954" width="42.2141" height="29.181" fill="#C4C4C4"/>
</mask>
<g mask="url(#mask0_643_2868)">
<path id="Rectangle 325" d="M15.4338 48.0524L44.1787 48.0524L37.6816 59.3335L8.93677 59.3336L15.4338 48.0524Z" fill="black" fill-opacity="0.07"/>
<rect id="Rectangle 321" x="42.1436" y="48.7954" width="42.2141" height="29.181" fill="url(#paint9_linear_643_2868)"/>
</g>
</g>
<path id="Rectangle 323" d="M13.3993 48.7954L42.1442 48.7954L36.5916 58.0615L7.84671 58.0615L13.3993 48.7954Z" fill="url(#paint10_linear_643_2868)"/>
<g id="Mask Group_2">
<mask id="mask1_643_2868" style="mask-type:alpha" maskUnits="userSpaceOnUse" x="42" y="48" width="14" height="30">
<rect id="Rectangle 326" x="42.1442" y="48.7954" width="13.5065" height="29.181" fill="#C4C4C4"/>
</mask>
<g mask="url(#mask1_643_2868)">
<path id="Rectangle 327" d="M54.0062 48.747L40.4786 48.7469L46.8349 59.4151L60.3626 59.4151L54.0062 48.747Z" fill="black" fill-opacity="0.07"/>
</g>
</g>
<path id="Rectangle 324" d="M55.6718 48.7954L42.1441 48.7954L47.6968 58.0615L61.2244 58.0615L55.6718 48.7954Z" fill="url(#paint11_linear_643_2868)"/>
</g>
<circle id="Ellipse 203" cx="28.401" cy="40.7152" r="3.98921" fill="url(#paint12_linear_643_2868)"/>
<circle id="Ellipse 204" cx="40.8043" cy="35.3828" r="3.85479" fill="url(#paint13_linear_643_2868)"/>
<circle id="Ellipse 205" cx="32.3904" cy="25.5606" r="3.10851" fill="url(#paint14_linear_643_2868)"/>
<circle id="Ellipse 218" cx="42.9191" cy="25.0915" r="0.775212" fill="#FFA800" fill-opacity="0.23"/>
<circle id="Ellipse 219" cx="37.7248" cy="42.7117" r="0.775212" fill="#FFA800" fill-opacity="0.23"/>
<circle id="Ellipse 220" cx="24.9954" cy="30.7528" r="0.775212" fill="#FFA800" fill-opacity="0.23"/>
<path id="Vector 98" d="M55.7502 48.9335H13.403L6.89951 8.83484H63.5595L55.7502 48.9335Z" fill="url(#paint15_linear_643_2868)"/>
</g>
<defs>
<linearGradient id="paint0_linear_643_2868" x1="25.7336" y1="17.8029" x2="24.3246" y2="21.4008" gradientUnits="userSpaceOnUse">
<stop stop-color="#FFE89E"/>
<stop offset="1" stop-color="#FFBF1A"/>
</linearGradient>
<linearGradient id="paint1_linear_643_2868" x1="23.0301" y1="11.4406" x2="22.0922" y2="13.8354" gradientUnits="userSpaceOnUse">
<stop stop-color="#FFE89E"/>
<stop offset="1" stop-color="#FFBF1A"/>
</linearGradient>
<linearGradient id="paint2_linear_643_2868" x1="16.6941" y1="4.4223" x2="15.2851" y2="8.02016" gradientUnits="userSpaceOnUse">
<stop stop-color="#FFE89E"/>
<stop offset="1" stop-color="#FFBF1A"/>
</linearGradient>
<linearGradient id="paint3_linear_643_2868" x1="16.0204" y1="18.9499" x2="13.9474" y2="24.2432" gradientUnits="userSpaceOnUse">
<stop stop-color="#FFE89E"/>
<stop offset="1" stop-color="#FFBF1A"/>
</linearGradient>
<linearGradient id="paint4_linear_643_2868" x1="43.8596" y1="17.803" x2="45.2686" y2="21.4009" gradientUnits="userSpaceOnUse">
<stop stop-color="#FFE89E"/>
<stop offset="1" stop-color="#FFBF1A"/>
</linearGradient>
<linearGradient id="paint5_linear_643_2868" x1="46.5631" y1="11.4404" x2="47.501" y2="13.8352" gradientUnits="userSpaceOnUse">
<stop stop-color="#FFE89E"/>
<stop offset="1" stop-color="#FFBF1A"/>
</linearGradient>
<linearGradient id="paint6_linear_643_2868" x1="52.9001" y1="4.42218" x2="54.3091" y2="8.02004" gradientUnits="userSpaceOnUse">
<stop stop-color="#FFE89E"/>
<stop offset="1" stop-color="#FFBF1A"/>
</linearGradient>
<linearGradient id="paint7_linear_643_2868" x1="53.5736" y1="18.9499" x2="55.6466" y2="24.2432" gradientUnits="userSpaceOnUse">
<stop stop-color="#FFE89E"/>
<stop offset="1" stop-color="#FFBF1A"/>
</linearGradient>
<linearGradient id="paint8_linear_643_2868" x1="27.5383" y1="43.3928" x2="10.7137" y2="89.7325" gradientUnits="userSpaceOnUse">
<stop stop-color="#FFD481"/>
<stop offset="1" stop-color="#FA620C"/>
</linearGradient>
<linearGradient id="paint9_linear_643_2868" x1="20.6387" y1="46.9446" x2="71.6994" y2="101.51" gradientUnits="userSpaceOnUse">
<stop stop-color="#FFD481"/>
<stop offset="0.83311" stop-color="#FA620C"/>
</linearGradient>
<linearGradient id="paint10_linear_643_2868" x1="13.9909" y1="45.4837" x2="12.6248" y2="65.2269" gradientUnits="userSpaceOnUse">
<stop stop-color="#FFD481"/>
<stop offset="1" stop-color="#FA620C"/>
</linearGradient>
<linearGradient id="paint11_linear_643_2868" x1="57.8063" y1="45.4837" x2="60.2361" y2="65.0193" gradientUnits="userSpaceOnUse">
<stop stop-color="#FFD481"/>
<stop offset="1" stop-color="#FA620C"/>
</linearGradient>
<linearGradient id="paint12_linear_643_2868" x1="28.7031" y1="35.4094" x2="27.9443" y2="46.1773" gradientUnits="userSpaceOnUse">
<stop stop-color="#FF9F81"/>
<stop offset="1" stop-color="#F53838"/>
</linearGradient>
<linearGradient id="paint13_linear_643_2868" x1="41.0962" y1="30.2558" x2="40.363" y2="40.6608" gradientUnits="userSpaceOnUse">
<stop stop-color="#FF9F81"/>
<stop offset="1" stop-color="#F53838"/>
</linearGradient>
<linearGradient id="paint14_linear_643_2868" x1="32.6258" y1="21.4262" x2="32.0345" y2="29.8168" gradientUnits="userSpaceOnUse">
<stop stop-color="#FF9F81"/>
<stop offset="1" stop-color="#F53838"/>
</linearGradient>
<linearGradient id="paint15_linear_643_2868" x1="34.7639" y1="8.83484" x2="34.7639" y2="94.0255" gradientUnits="userSpaceOnUse">
<stop stop-color="white" stop-opacity="0"/>
<stop offset="1" stop-color="#FE9277"/>
</linearGradient>
</defs>
</svg>
