<svg width="12" height="12" viewBox="0 0 12 12" fill="none" xmlns="http://www.w3.org/2000/svg">
<g id="bx:bxs-check-circle">
<path id="Vector" d="M5.74098 1.17612C3.15036 1.17612 1.04272 3.28376 1.04272 5.87437C1.04272 8.46499 3.15036 10.5726 5.74098 10.5726C8.3316 10.5726 10.4392 8.46499 10.4392 5.87437C10.4392 3.28376 8.3316 1.17612 5.74098 1.17612ZM4.8018 7.94771L3.38972 6.53867C3.20613 6.35548 3.20576 6.05817 3.38889 5.87452C3.57213 5.69076 3.86967 5.69042 4.05333 5.87376L4.80086 6.61999L6.95595 4.4649C7.1394 4.28145 7.43683 4.28145 7.62028 4.4649C7.80374 4.64835 7.80374 4.94578 7.62028 5.12923L4.8018 7.94771Z" fill="#2FAB73"/>
</g>
</svg>
