<svg width="64" height="8" viewBox="0 0 64 8" fill="none" xmlns="http://www.w3.org/2000/svg">
<g id="Group 1300">
<circle id="Ellipse 172" cx="32.2438" cy="4.12989" r="3.52369" fill="#DDE0E4"/>
<circle id="Ellipse 173" cx="46.3386" cy="4.12989" r="3.52369" fill="#DDE0E4"/>
<circle id="Ellipse 174" cx="60.433" cy="4.12989" r="3.52369" fill="#DDE0E4"/>
<path id="Union" fill-rule="evenodd" clip-rule="evenodd" d="M21.6726 4.12989C21.6726 6.07598 20.095 7.65359 18.1489 7.65359C18.0834 7.65359 18.0183 7.6518 17.9536 7.64826V7.65349H4.0869C4.07593 7.65359 4.06495 7.65364 4.05397 7.65364C4.04298 7.65364 4.032 7.65359 4.02104 7.65349H3.79438V7.64422C1.96951 7.51134 0.530273 5.98872 0.530273 4.12994C0.530273 2.27117 1.96951 0.748546 3.79438 0.615668V0.606201H17.9536V0.611523C18.0183 0.607991 18.0834 0.606201 18.1489 0.606201C20.095 0.606201 21.6726 2.18381 21.6726 4.12989Z" fill="#F53838"/>
</g>
</svg>
