<svg width="27" height="27" viewBox="0 0 27 27" fill="none" xmlns="http://www.w3.org/2000/svg">
<rect x="0.341431" y="0.485199" width="25.8404" height="25.8404" rx="12.9202" fill="#FFECEC"/>
<path d="M16.5504 11.9959C16.5504 11.564 16.4653 11.1364 16.3001 10.7374C16.1348 10.3383 15.8925 9.97579 15.5871 9.6704C15.2817 9.36501 14.9192 9.12276 14.5202 8.95748C14.1212 8.7922 13.6935 8.70714 13.2616 8.70714C12.8297 8.70714 12.4021 8.7922 12.0031 8.95748C11.604 9.12276 11.2415 9.36501 10.9361 9.6704C10.6307 9.97579 10.3885 10.3383 10.2232 10.7374C10.0579 11.1364 9.97284 11.564 9.97284 11.9959C9.97284 12.6476 10.1655 13.2536 10.492 13.7648H10.4882C11.597 15.5008 13.2616 18.1037 13.2616 18.1037L16.035 13.7648H16.0317C16.3702 13.2369 16.5502 12.623 16.5504 11.9959ZM13.2616 13.4054C12.8878 13.4054 12.5293 13.2569 12.265 12.9926C12.0006 12.7282 11.8521 12.3697 11.8521 11.9959C11.8521 11.6221 12.0006 11.2636 12.265 10.9993C12.5293 10.7349 12.8878 10.5864 13.2616 10.5864C13.6354 10.5864 13.9939 10.7349 14.2583 10.9993C14.5226 11.2636 14.6711 11.6221 14.6711 11.9959C14.6711 12.3697 14.5226 12.7282 14.2583 12.9926C13.9939 13.2569 13.6354 13.4054 13.2616 13.4054Z" fill="#F53838"/>
</svg>
