<svg width="240" height="196" viewBox="0 0 240 196" fill="none" xmlns="http://www.w3.org/2000/svg">
<g id="Illustration 2">
<path id="Vector 92" d="M179.118 138.379L160.456 127.423L145.797 149.238C154.361 156.385 168.748 161.583 176.183 159.996C191.44 156.739 222.271 113.419 226.549 110.121C241.113 98.8937 245.847 94.6329 227.623 103.357C210.249 111.675 219.451 103.357 215.195 103.357C210.081 103.714 211.775 108.253 213.674 111.505L179.118 138.379Z" fill="url(#paint0_linear_643_2991)"/>
<path id="Vector 52" d="M73.2283 121.782C78.4936 118.126 99.2985 111.54 108.435 108.704L118.102 109.758C124.193 111.268 137.257 113.843 143.267 116.279C149.276 118.715 160.182 126.485 170.356 132.964L167.954 141.283C165.796 148.755 160.091 154.681 152.706 157.119C150.806 169.204 149.167 188.851 149.438 194.941L78.7356 194.887L75.4987 164.983L60.9393 166.543L48.6411 157.119C64.0405 130.483 66.6468 126.353 73.2283 121.782Z" fill="url(#paint1_linear_643_2991)"/>
<path id="Vector 91" d="M53.0015 190.496C30.6 187.656 45.1698 164.952 49.1416 157.454C53.9455 161.497 59.8776 163.965 66.1323 164.52L73.852 165.206L70.6909 172.499L104.819 180.488L109.607 193.771C106.196 193.19 80.859 194.029 53.0015 190.496Z" fill="url(#paint2_linear_643_2991)"/>
<path id="Vector 79" d="M110.818 49.0951C111.92 47.1013 115.082 44.31 118.91 49.0951H110.818Z" fill="#30235B"/>
<ellipse id="Ellipse 188" cx="112.656" cy="117.399" rx="12.2025" ry="8.69561" fill="#CF0606"/>
<path id="Vector 83" d="M102.657 116.932L104.363 99.9486H120.969L122.877 116.932C122.21 118.932 119.062 122.99 113.233 122.99C105.804 122.99 103.134 118.932 102.657 116.932Z" fill="url(#paint3_linear_643_2991)"/>
<g id="Mask Group">
<mask id="mask0_643_2991" style="mask-type:alpha" maskUnits="userSpaceOnUse" x="102" y="99" width="21" height="24">
<path id="Vector 81" d="M102.657 116.932L104.363 99.9486H120.969L122.88 116.967C122.213 118.967 119.055 122.99 113.226 122.99C105.797 122.99 103.134 118.932 102.657 116.932Z" fill="url(#paint4_linear_643_2991)"/>
</mask>
<g mask="url(#mask0_643_2991)">
<path id="Vector 82" opacity="0.1" d="M126.953 100.599C111.938 119.177 103.548 104.239 99.2134 101.998L102.192 89.4388L119.971 87.3159L126.953 100.599Z" fill="black"/>
</g>
</g>
<path id="Vector 77" d="M112.368 106.766C94.4591 106.766 91.3795 81.0602 96.9127 69.3022C109.362 54.0858 124.925 62.962 131.149 69.3022C132.648 79.1006 134.301 106.766 112.368 106.766Z" fill="url(#paint5_linear_643_2991)"/>
<path id="Vector 89" d="M131.456 87.1008L127.947 84.516L128.49 82.5918L132.497 85.2343L131.456 87.1008Z" fill="#111111"/>
<path id="Vector 90" d="M94.9005 86.3512L98.409 83.7664L97.8663 81.8423L93.8589 84.4847L94.9005 86.3512Z" fill="#111111"/>
<path id="Vector 78" d="M98.1114 70.8472C110.808 79.1191 124.883 74.2938 130.334 70.8472C129.186 74.4667 130.812 81.4242 131.768 84.4504C140.029 73.6921 137.329 67.8827 134.946 66.3227C134.548 60.9608 129.674 47.5547 113.31 48.1902C96.9467 48.8257 93.7715 60.4313 94.2349 64.734C88.0389 73.1542 91.7254 81.3867 94.7136 84.4504C98.1114 77.854 98.0339 73.2265 98.1114 70.8472Z" fill="#30235B"/>
<g id="Vector 80" filter="url(#filter0_d_643_2991)">
<path d="M114.611 56.4689C95.6569 55.8344 91.4351 68.2995 90.8685 75.5379C90.8231 76.1174 90.349 76.5739 89.7676 76.5739C89.1474 76.5739 88.6531 76.0566 88.7082 75.4388C89.5352 66.1579 94.4835 49.94 114.611 51.0582C134.934 52.1873 138.91 68.3659 138.286 77.3845C138.253 77.8671 137.845 78.2319 137.361 78.2319C136.834 78.2319 136.41 77.8038 136.389 77.2766C136.09 69.7936 131.116 56.9472 114.611 56.4689Z" fill="white"/>
</g>
<g id="Rectangle 315" filter="url(#filter1_d_643_2991)">
<rect x="138.665" y="81.1917" width="2.57263" height="9.87247" rx="1.28631" transform="rotate(10.0542 138.665 81.1917)" fill="#24C28A"/>
</g>
<g id="Rectangle 312" filter="url(#filter2_d_643_2991)">
<rect x="133.138" y="74.7912" width="7.92444" height="20.5658" rx="3.96222" transform="rotate(10.0542 133.138 74.7912)" fill="white"/>
</g>
<g id="Rectangle 314" filter="url(#filter3_d_643_2991)">
<rect width="2.57263" height="9.87247" rx="1.28631" transform="matrix(-0.984643 0.17458 0.17458 0.984643 87.4963 81.1917)" fill="#24C28A"/>
</g>
<g id="Rectangle 313" filter="url(#filter4_d_643_2991)">
<rect width="7.92444" height="20.5658" rx="3.96222" transform="matrix(-0.984643 0.17458 0.17458 0.984643 92.9513 74.7912)" fill="white"/>
</g>
<g id="Mask Group_2">
<mask id="mask1_643_2991" style="mask-type:alpha" maskUnits="userSpaceOnUse" x="85" y="75" width="11" height="21">
<rect id="Rectangle 316" width="7.92444" height="20.5658" rx="3.96222" transform="matrix(-0.984643 0.17458 0.17458 0.984643 92.9514 74.7913)" fill="white"/>
</mask>
<g mask="url(#mask1_643_2991)">
<rect id="Rectangle 317" x="89.2197" y="74.7913" width="10.3079" height="22.3246" transform="rotate(-10.0977 89.2197 74.7913)" fill="#E8E8E8"/>
</g>
</g>
<g id="Mask Group_3">
<mask id="mask2_643_2991" style="mask-type:alpha" maskUnits="userSpaceOnUse" x="130" y="75" width="11" height="21">
<rect id="Rectangle 316_2" x="133.139" y="74.7913" width="7.92444" height="20.5658" rx="3.96222" transform="rotate(10.0542 133.139 74.7913)" fill="white"/>
</mask>
<g mask="url(#mask2_643_2991)">
<rect id="Rectangle 317_2" width="10.3079" height="22.3246" transform="matrix(-0.98451 -0.175326 -0.175326 0.98451 137.351 74.7913)" fill="#E8E8E8"/>
</g>
</g>
<path id="Vector 87" opacity="0.5" d="M104.651 90.1034C102.117 90.1034 100.841 88.1067 100.517 87.2152C100.144 86.4695 99.8498 84.5267 100.733 82.9837C101.855 81.0216 107.131 80.4744 108.979 83.2464C110.827 86.0184 108.979 90.1034 104.651 90.1034Z" fill="#E6FCFF"/>
<path id="Vector 88" opacity="0.5" d="M121.438 90.1034C123.972 90.1034 125.248 88.1067 125.572 87.2152C125.945 86.4695 126.239 84.5267 125.357 82.9837C124.234 81.0216 118.958 80.4744 117.11 83.2464C115.262 86.0184 117.11 90.1034 121.438 90.1034Z" fill="#E6FCFF"/>
<path id="Subtract" fill-rule="evenodd" clip-rule="evenodd" d="M110.288 82.6356C106.156 79.007 102.424 80.5423 100.212 81.4521L100.212 81.4521C99.9662 81.5532 99.7391 81.6467 99.5323 81.7244L98.1476 81.727C97.8869 81.7275 97.6764 81.9402 97.6787 82.201L97.689 83.365C97.6913 83.6228 97.901 83.8307 98.1588 83.8307L99.16 83.8307C98.4349 90.0562 103.026 91.7223 106.698 90.6001C109.971 89.5997 110.848 86.7689 111.023 84.993C111.723 83.4414 114.793 84.1583 114.914 84.9585L114.924 85.0214C115.068 85.9958 115.794 90.9046 121.32 90.9116C125.847 90.9172 127.075 86.8731 127.123 84.8503L128.295 84.8399C128.554 84.8376 128.763 84.6254 128.76 84.3659L128.748 82.9419C128.746 82.6824 128.533 82.4739 128.274 82.4762L127.102 82.4866C124.153 79.4994 117.819 79.7792 115.588 82.5887C113.127 82.021 111.029 82.3835 110.288 82.6356ZM104.651 90.1034C102.117 90.1034 100.841 88.1067 100.517 87.2151C100.144 86.4694 99.85 84.5267 100.733 82.9836C101.855 81.0215 107.131 80.4743 108.979 83.2463C110.827 86.0183 108.979 90.1034 104.651 90.1034ZM125.572 87.2151C125.248 88.1067 123.972 90.1033 121.439 90.1033C117.11 90.1033 115.262 86.0183 117.11 83.2463C118.958 80.4743 124.234 81.0215 125.357 82.9836C126.239 84.5267 125.945 86.4694 125.572 87.2151Z" fill="#111111"/>
<g id="Group 1272">
<path id="Rectangle 319" d="M77.2378 192.422C77.2378 192.161 77.4491 191.95 77.7098 191.95H150.247C150.703 191.95 151.073 192.32 151.073 192.776C151.073 194.144 149.964 195.254 148.595 195.254H80.0697C78.5057 195.254 77.2378 193.986 77.2378 192.422Z" fill="#B4B4B4"/>
<rect id="Rectangle 318" x="77.238" y="143.776" width="73.8352" height="49.4006" rx="1.38442" fill="url(#paint6_linear_643_2991)"/>
<circle id="Ellipse 192" cx="114.155" cy="168.477" r="5.25099" fill="white"/>
</g>
<g id="Group 1276">
<path id="Union" fill-rule="evenodd" clip-rule="evenodd" d="M61.6921 80.2221C61.7857 78.6205 62.105 77.2799 62.3712 76.5347C62.894 77.8417 63.1524 79.0966 63.2398 80.2409C64.384 80.3283 65.6388 80.5867 66.9458 81.1095C66.2007 81.3756 64.8601 81.6949 63.2586 81.7885C63.1693 83.4887 62.732 84.8097 62.3712 85.4863C61.9321 84.2569 61.7317 82.9923 61.6794 81.8012C60.4883 81.749 59.2237 81.5486 57.9942 81.1095C58.6708 80.7486 59.9919 80.3114 61.6921 80.2221Z" fill="url(#paint7_linear_643_2991)"/>
<path id="Union_2" fill-rule="evenodd" clip-rule="evenodd" d="M49.0599 69.6854C49.1223 68.6194 49.3348 67.727 49.5119 67.231C49.8599 68.101 50.0319 68.9363 50.0901 69.698C50.8518 69.7561 51.687 69.9281 52.557 70.2761C52.061 70.4532 51.1686 70.6658 50.1026 70.7281C50.0432 71.8598 49.7521 72.7391 49.5119 73.1895C49.2197 72.3711 49.0863 71.5294 49.0515 70.7365C48.2587 70.7018 47.4169 70.5684 46.5985 70.2761C47.0489 70.0359 47.9282 69.7449 49.0599 69.6854Z" fill="url(#paint8_linear_643_2991)"/>
<path id="Union_3" fill-rule="evenodd" clip-rule="evenodd" d="M28.7054 62.1787C28.7991 60.5772 29.1184 59.2366 29.3845 58.4914C29.9073 59.7984 30.1657 61.0532 30.2531 62.1975C31.3974 62.2849 32.6522 62.5433 33.9591 63.0661C33.214 63.3322 31.8734 63.6515 30.2719 63.7452C30.1826 65.4454 29.7454 66.7664 29.3845 67.443C28.9454 66.2136 28.745 64.9489 28.6928 63.7579C27.5017 63.7056 26.237 63.5052 25.0075 63.0661C25.6842 62.7053 27.0052 62.268 28.7054 62.1787Z" fill="url(#paint9_linear_643_2991)"/>
<path id="Union_4" fill-rule="evenodd" clip-rule="evenodd" d="M30.4475 98.9852C30.5853 96.629 31.055 94.6566 31.4466 93.5603C32.2157 95.4832 32.5959 97.3293 32.7244 99.0129C34.408 99.1414 36.2542 99.5216 38.1772 100.291C37.0808 100.682 35.1084 101.152 32.7521 101.29C32.6207 103.791 31.9775 105.735 31.4466 106.73C30.8005 104.921 30.5057 103.061 30.4289 101.308C28.6765 101.232 26.816 100.937 25.0072 100.291C26.0027 99.7599 27.9461 99.1166 30.4475 98.9852Z" fill="url(#paint10_linear_643_2991)"/>
<circle id="Ellipse 199" cx="44.7633" cy="85.0527" r="0.865139" fill="#2F235A"/>
<circle id="Ellipse 200" cx="64.6169" cy="60.2471" r="0.865139" fill="#FE9076"/>
<circle id="Ellipse 201" cx="21.1018" cy="81.618" r="0.865139" fill="#FFA400"/>
<circle id="Ellipse 202" cx="59.8748" cy="98.3959" r="0.865139" fill="#23BB86"/>
<path id="Vector 95" d="M62.4971 56.6364C60.5411 53.9501 55.0314 48.2122 48.64 46.7513" stroke="#FE9076" stroke-width="0.753022" stroke-linecap="round"/>
<path id="Vector 96" d="M17.4517 79.2992C14.5608 77.6607 7.17294 74.7109 0.748882 76.0205" stroke="#FFA400" stroke-width="0.753022" stroke-linecap="round"/>
<path id="Vector 97" d="M56.9055 100.909C55.4241 102.216 51.8601 105.928 49.455 110.32" stroke="#23BB86" stroke-width="0.753022" stroke-linecap="round"/>
</g>
<g id="Group 1296">
<path id="Union_5" fill-rule="evenodd" clip-rule="evenodd" d="M163.81 80.222C163.716 78.6205 163.397 77.2799 163.13 76.5347C162.608 77.8417 162.349 79.0966 162.262 80.2409C161.118 80.3283 159.863 80.5867 158.556 81.1095C159.301 81.3756 160.642 81.6949 162.243 81.7885C162.332 83.4887 162.77 84.8097 163.13 85.4863C163.57 84.2569 163.77 82.9923 163.822 81.8012C165.013 81.7489 166.278 81.5486 167.507 81.1095C166.831 80.7486 165.51 80.3114 163.81 80.222Z" fill="url(#paint11_linear_643_2991)"/>
<path id="Union_6" fill-rule="evenodd" clip-rule="evenodd" d="M176.442 69.6854C176.38 68.6194 176.167 67.727 175.99 67.231C175.642 68.101 175.47 68.9363 175.412 69.698C174.65 69.7561 173.815 69.9281 172.945 70.2761C173.441 70.4532 174.334 70.6658 175.4 70.7281C175.459 71.8598 175.75 72.7391 175.99 73.1895C176.283 72.3711 176.416 71.5294 176.451 70.7365C177.244 70.7018 178.085 70.5684 178.904 70.2761C178.453 70.0359 177.574 69.7449 176.442 69.6854Z" fill="url(#paint12_linear_643_2991)"/>
<path id="Union_7" fill-rule="evenodd" clip-rule="evenodd" d="M196.796 62.1787C196.703 60.5772 196.383 59.2366 196.117 58.4915C195.595 59.7984 195.336 61.0533 195.249 62.1976C194.104 62.2849 192.85 62.5433 191.543 63.0661C192.288 63.3323 193.628 63.6515 195.23 63.7452C195.319 65.4454 195.756 66.7664 196.117 67.4431C196.556 66.2136 196.757 64.949 196.809 63.7579C198 63.7056 199.265 63.5052 200.494 63.0661C199.818 62.7053 198.497 62.268 196.796 62.1787Z" fill="url(#paint13_linear_643_2991)"/>
<path id="Union_8" fill-rule="evenodd" clip-rule="evenodd" d="M195.054 98.9852C194.917 96.629 194.447 94.6566 194.055 93.5603C193.286 95.4832 192.906 97.3293 192.777 99.0129C191.094 99.1414 189.248 99.5216 187.325 100.291C188.421 100.682 190.393 101.152 192.75 101.29C192.881 103.791 193.524 105.735 194.055 106.73C194.701 104.921 194.996 103.061 195.073 101.308C196.825 101.232 198.686 100.937 200.495 100.291C199.499 99.7599 197.556 99.1166 195.054 98.9852Z" fill="url(#paint14_linear_643_2991)"/>
<circle id="Ellipse 199_2" cx="0.865139" cy="0.865139" r="0.865139" transform="matrix(-1 0 0 1 181.604 84.1875)" fill="#2F235A"/>
<circle id="Ellipse 200_2" cx="0.865139" cy="0.865139" r="0.865139" transform="matrix(-1 0 0 1 161.75 59.382)" fill="#FE9076"/>
<circle id="Ellipse 201_2" cx="0.865139" cy="0.865139" r="0.865139" transform="matrix(-1 0 0 1 205.265 80.7529)" fill="#FFA400"/>
<circle id="Ellipse 202_2" cx="0.865139" cy="0.865139" r="0.865139" transform="matrix(-1 0 0 1 166.492 97.5307)" fill="#23BB86"/>
<path id="Vector 95_2" d="M163.005 56.6364C164.961 53.9501 170.47 48.2121 176.862 46.7513" stroke="#FE9076" stroke-width="0.753022" stroke-linecap="round"/>
<path id="Vector 96_2" d="M208.05 79.2992C210.941 77.6607 218.329 74.7109 224.753 76.0205" stroke="#FFA400" stroke-width="0.753022" stroke-linecap="round"/>
<path id="Vector 97_2" d="M168.596 100.909C170.078 102.216 173.642 105.928 176.047 110.32" stroke="#23BB86" stroke-width="0.753022" stroke-linecap="round"/>
</g>
<g id="Group 1293">
<path id="Vector" d="M126.863 39.5112C125.882 37.9556 123.896 38.803 123.896 40.4977C123.896 41.7703 126.619 43.7609 126.863 44.0197C127.109 43.7609 129.696 41.7703 129.696 40.4977C129.696 38.8159 127.846 37.9556 126.863 39.5112V39.5112Z" fill="#FFBCBC"/>
<circle id="Ellipse 232" cx="126.796" cy="28.5992" r="6.48353" stroke="#F7F7F7" stroke-width="0.305238"/>
</g>
<g id="Group 1299">
<path id="Vector_2" d="M103.596 30.2346C102.728 28.8577 100.97 29.6078 100.97 31.1076C100.97 32.2339 103.379 33.9957 103.596 34.2248C103.814 33.9957 106.103 32.2339 106.103 31.1076C106.103 29.6192 104.466 28.8577 103.596 30.2346V30.2346Z" fill="#FFBCBC"/>
<circle id="Ellipse 232_2" cx="103.537" cy="19.3563" r="5.7382" stroke="#F7F7F7" stroke-width="0.270149"/>
</g>
<g id="Group 1297">
<path id="Vector_3" d="M118.951 20.1177C118.357 19.176 117.155 19.689 117.155 20.7148C117.155 21.4851 118.803 22.6901 118.951 22.8467C119.1 22.6901 120.666 21.4851 120.666 20.7148C120.666 19.6968 119.546 19.176 118.951 20.1177V20.1177Z" fill="#FFBCBC"/>
<circle id="Ellipse 232_3" cx="118.911" cy="8.99901" r="3.92454" stroke="#F7F7F7" stroke-width="0.184763"/>
</g>
<g id="Group 1298">
<path id="Vector_4" d="M91.8279 14.8776C91.342 14.1071 90.3586 14.5268 90.3586 15.3662C90.3586 15.9964 91.7068 16.9824 91.8279 17.1106C91.9499 16.9824 93.231 15.9964 93.231 15.3662C93.231 14.5332 92.3147 14.1071 91.8279 14.8776V14.8776Z" fill="#FFBCBC"/>
<circle id="Ellipse 232_4" cx="91.7948" cy="3.69704" r="3.2112" stroke="#F7F7F7" stroke-width="0.15118"/>
</g>
<g id="Group 1294">
<path id="Vector_5" d="M89.4379 50.9972C88.3771 49.315 86.2299 50.2314 86.2299 52.0639C86.2299 53.44 89.1735 55.5926 89.4379 55.8725C89.7041 55.5926 92.5013 53.44 92.5013 52.0639C92.5013 50.2453 90.5008 49.315 89.4379 50.9972V50.9972Z" fill="#FFBCBC"/>
<circle id="Ellipse 232_5" cx="89.3655" cy="39.9336" r="7.01102" stroke="#F7F7F7" stroke-width="0.330072"/>
</g>
</g>
<defs>
<filter id="filter0_d_643_2991" x="72.7299" y="36.9085" width="81.5904" height="59.1768" filterUnits="userSpaceOnUse" color-interpolation-filters="sRGB">
<feFlood flood-opacity="0" result="BackgroundImageFix"/>
<feColorMatrix in="SourceAlpha" type="matrix" values="0 0 0 0 0 0 0 0 0 0 0 0 0 0 0 0 0 0 127 0" result="hardAlpha"/>
<feOffset dy="1.8793"/>
<feGaussianBlur stdDeviation="7.98704"/>
<feColorMatrix type="matrix" values="0 0 0 0 0.0386285 0 0 0 0 0.0648437 0 0 0 0 0.104167 0 0 0 0.13 0"/>
<feBlend mode="normal" in2="BackgroundImageFix" result="effect1_dropShadow_643_2991"/>
<feBlend mode="normal" in="SourceGraphic" in2="effect1_dropShadow_643_2991" result="shape"/>
</filter>
<filter id="filter1_d_643_2991" x="121.172" y="67.3015" width="35.7956" height="41.709" filterUnits="userSpaceOnUse" color-interpolation-filters="sRGB">
<feFlood flood-opacity="0" result="BackgroundImageFix"/>
<feColorMatrix in="SourceAlpha" type="matrix" values="0 0 0 0 0 0 0 0 0 0 0 0 0 0 0 0 0 0 127 0" result="hardAlpha"/>
<feOffset dy="1.8793"/>
<feGaussianBlur stdDeviation="7.98704"/>
<feColorMatrix type="matrix" values="0 0 0 0 0.0386285 0 0 0 0 0.0648437 0 0 0 0 0.104167 0 0 0 0.13 0"/>
<feBlend mode="normal" in2="BackgroundImageFix" result="effect1_dropShadow_643_2991"/>
<feBlend mode="normal" in="SourceGraphic" in2="effect1_dropShadow_643_2991" result="shape"/>
</filter>
<filter id="filter2_d_643_2991" x="114.204" y="61.3267" width="42.0809" height="52.3212" filterUnits="userSpaceOnUse" color-interpolation-filters="sRGB">
<feFlood flood-opacity="0" result="BackgroundImageFix"/>
<feColorMatrix in="SourceAlpha" type="matrix" values="0 0 0 0 0 0 0 0 0 0 0 0 0 0 0 0 0 0 127 0" result="hardAlpha"/>
<feOffset dy="1.8793"/>
<feGaussianBlur stdDeviation="7.98704"/>
<feColorMatrix type="matrix" values="0 0 0 0 0.0386285 0 0 0 0 0.0648437 0 0 0 0 0.104167 0 0 0 0.13 0"/>
<feBlend mode="normal" in2="BackgroundImageFix" result="effect1_dropShadow_643_2991"/>
<feBlend mode="normal" in="SourceGraphic" in2="effect1_dropShadow_643_2991" result="shape"/>
</filter>
<filter id="filter3_d_643_2991" x="69.1937" y="67.3015" width="35.7956" height="41.709" filterUnits="userSpaceOnUse" color-interpolation-filters="sRGB">
<feFlood flood-opacity="0" result="BackgroundImageFix"/>
<feColorMatrix in="SourceAlpha" type="matrix" values="0 0 0 0 0 0 0 0 0 0 0 0 0 0 0 0 0 0 127 0" result="hardAlpha"/>
<feOffset dy="1.8793"/>
<feGaussianBlur stdDeviation="7.98704"/>
<feColorMatrix type="matrix" values="0 0 0 0 0.0386285 0 0 0 0 0.0648437 0 0 0 0 0.104167 0 0 0 0.13 0"/>
<feBlend mode="normal" in2="BackgroundImageFix" result="effect1_dropShadow_643_2991"/>
<feBlend mode="normal" in="SourceGraphic" in2="effect1_dropShadow_643_2991" result="shape"/>
</filter>
<filter id="filter4_d_643_2991" x="69.8046" y="61.3267" width="42.0809" height="52.3212" filterUnits="userSpaceOnUse" color-interpolation-filters="sRGB">
<feFlood flood-opacity="0" result="BackgroundImageFix"/>
<feColorMatrix in="SourceAlpha" type="matrix" values="0 0 0 0 0 0 0 0 0 0 0 0 0 0 0 0 0 0 127 0" result="hardAlpha"/>
<feOffset dy="1.8793"/>
<feGaussianBlur stdDeviation="7.98704"/>
<feColorMatrix type="matrix" values="0 0 0 0 0.0386285 0 0 0 0 0.0648437 0 0 0 0 0.104167 0 0 0 0.13 0"/>
<feBlend mode="normal" in2="BackgroundImageFix" result="effect1_dropShadow_643_2991"/>
<feBlend mode="normal" in="SourceGraphic" in2="effect1_dropShadow_643_2991" result="shape"/>
</filter>
<linearGradient id="paint0_linear_643_2991" x1="183.879" y1="74.7936" x2="185.122" y2="157.421" gradientUnits="userSpaceOnUse">
<stop stop-color="#FFEFE0"/>
<stop offset="1" stop-color="#FFBE99"/>
</linearGradient>
<linearGradient id="paint1_linear_643_2991" x1="114.107" y1="94.4732" x2="108.281" y2="211.148" gradientUnits="userSpaceOnUse">
<stop stop-color="#FF9F81"/>
<stop offset="1" stop-color="#F53838"/>
</linearGradient>
<linearGradient id="paint2_linear_643_2991" x1="107.029" y1="135.477" x2="51.2736" y2="162.199" gradientUnits="userSpaceOnUse">
<stop offset="0.0677966" stop-color="#FFEFE0"/>
<stop offset="1" stop-color="#FFBE99"/>
</linearGradient>
<linearGradient id="paint3_linear_643_2991" x1="112.194" y1="81.6785" x2="113.172" y2="112.868" gradientUnits="userSpaceOnUse">
<stop stop-color="#FFEFE0"/>
<stop offset="1" stop-color="#FFBE99"/>
</linearGradient>
<linearGradient id="paint4_linear_643_2991" x1="112.194" y1="81.6785" x2="110.825" y2="117.212" gradientUnits="userSpaceOnUse">
<stop stop-color="#FFEFE0"/>
<stop offset="1" stop-color="#FFBE99"/>
</linearGradient>
<linearGradient id="paint5_linear_643_2991" x1="113.818" y1="65.0503" x2="113.818" y2="102.504" gradientUnits="userSpaceOnUse">
<stop stop-color="#FFEFE0"/>
<stop offset="1" stop-color="#FFBE99"/>
</linearGradient>
<linearGradient id="paint6_linear_643_2991" x1="129.402" y1="106.701" x2="102.102" y2="204.657" gradientUnits="userSpaceOnUse">
<stop offset="0.0171777" stop-color="white"/>
<stop offset="1" stop-color="#D7D7D7"/>
</linearGradient>
<linearGradient id="paint7_linear_643_2991" x1="62.47" y1="77.4875" x2="62.47" y2="85.8925" gradientUnits="userSpaceOnUse">
<stop stop-color="#FFE89E"/>
<stop offset="1" stop-color="#FFBF1A"/>
</linearGradient>
<linearGradient id="paint8_linear_643_2991" x1="49.5777" y1="67.8652" x2="49.5777" y2="73.4599" gradientUnits="userSpaceOnUse">
<stop stop-color="#FFE89E"/>
<stop offset="1" stop-color="#FFBF1A"/>
</linearGradient>
<linearGradient id="paint9_linear_643_2991" x1="29.4833" y1="59.4442" x2="29.4833" y2="67.8492" gradientUnits="userSpaceOnUse">
<stop stop-color="#FFE89E"/>
<stop offset="1" stop-color="#FFBF1A"/>
</linearGradient>
<linearGradient id="paint10_linear_643_2991" x1="31.5922" y1="94.9621" x2="31.5922" y2="107.328" gradientUnits="userSpaceOnUse">
<stop stop-color="#FFE89E"/>
<stop offset="1" stop-color="#FFBF1A"/>
</linearGradient>
<linearGradient id="paint11_linear_643_2991" x1="163.032" y1="77.4875" x2="163.032" y2="85.8925" gradientUnits="userSpaceOnUse">
<stop stop-color="#FFE89E"/>
<stop offset="1" stop-color="#FFBF1A"/>
</linearGradient>
<linearGradient id="paint12_linear_643_2991" x1="175.925" y1="67.8652" x2="175.925" y2="73.4599" gradientUnits="userSpaceOnUse">
<stop stop-color="#FFE89E"/>
<stop offset="1" stop-color="#FFBF1A"/>
</linearGradient>
<linearGradient id="paint13_linear_643_2991" x1="196.019" y1="59.4442" x2="196.019" y2="67.8492" gradientUnits="userSpaceOnUse">
<stop stop-color="#FFE89E"/>
<stop offset="1" stop-color="#FFBF1A"/>
</linearGradient>
<linearGradient id="paint14_linear_643_2991" x1="193.91" y1="94.9621" x2="193.91" y2="107.328" gradientUnits="userSpaceOnUse">
<stop stop-color="#FFE89E"/>
<stop offset="1" stop-color="#FFBF1A"/>
</linearGradient>
</defs>
</svg>
