<svg width="27" height="27" viewBox="0 0 27 27" fill="none" xmlns="http://www.w3.org/2000/svg">
<rect x="0.265137" y="0.485199" width="25.8404" height="25.8404" rx="12.9202" fill="#FFECEC"/>
<path d="M16.944 9.17694H9.42683C9.17762 9.17694 8.93862 9.27594 8.7624 9.45216C8.58618 9.62838 8.48718 9.86738 8.48718 10.1166V11.9959C8.48718 12.2451 8.58618 12.4841 8.7624 12.6603C8.93862 12.8365 9.17762 12.9355 9.42683 12.9355H16.944C17.1933 12.9355 17.4323 12.8365 17.6085 12.6603C17.7847 12.4841 17.8837 12.2451 17.8837 11.9959V10.1166C17.8837 9.86738 17.7847 9.62838 17.6085 9.45216C17.4323 9.27594 17.1933 9.17694 16.944 9.17694ZM14.5949 11.0562C14.5949 11.3157 14.3846 11.5261 14.1251 11.5261C13.8656 11.5261 13.6553 11.3157 13.6553 11.0562C13.6553 10.7968 13.8656 10.5864 14.1251 10.5864C14.3846 10.5864 14.5949 10.7968 14.5949 11.0562ZM16.4742 11.0562C16.4742 11.3157 16.2639 11.5261 16.0044 11.5261C15.7449 11.5261 15.5346 11.3157 15.5346 11.0562C15.5346 10.7968 15.7449 10.5864 16.0044 10.5864C16.2639 10.5864 16.4742 10.7968 16.4742 11.0562ZM16.944 13.8752H9.42683C9.17762 13.8752 8.93862 13.9742 8.7624 14.1504C8.58618 14.3266 8.48718 14.5656 8.48718 14.8148V16.6942C8.48718 16.9434 8.58618 17.1824 8.7624 17.3586C8.93862 17.5348 9.17762 17.6338 9.42683 17.6338H16.944C17.1933 17.6338 17.4323 17.5348 17.6085 17.3586C17.7847 17.1824 17.8837 16.9434 17.8837 16.6942V14.8148C17.8837 14.5656 17.7847 14.3266 17.6085 14.1504C17.4323 13.9742 17.1933 13.8752 16.944 13.8752ZM14.5949 15.7545C14.5949 16.014 14.3846 16.2243 14.1251 16.2243C13.8656 16.2243 13.6553 16.014 13.6553 15.7545C13.6553 15.495 13.8656 15.2847 14.1251 15.2847C14.3846 15.2847 14.5949 15.495 14.5949 15.7545ZM16.4742 15.7545C16.4742 16.014 16.2639 16.2243 16.0044 16.2243C15.7449 16.2243 15.5346 16.014 15.5346 15.7545C15.5346 15.495 15.7449 15.2847 16.0044 15.2847C16.2639 15.2847 16.4742 15.495 16.4742 15.7545Z" fill="#F53838"/>
</svg>
