<svg width="27" height="27" viewBox="0 0 27 27" fill="none" xmlns="http://www.w3.org/2000/svg">
<rect x="0.28418" y="0.485199" width="25.8404" height="25.8404" rx="12.9202" fill="#FFECEC"/>
<path fill-rule="evenodd" clip-rule="evenodd" d="M13.2043 12.8416C13.6529 12.8416 14.0831 12.6634 14.4003 12.3462C14.7175 12.029 14.8957 11.5988 14.8957 11.1502C14.8957 10.7016 14.7175 10.2714 14.4003 9.95424C14.0831 9.63704 13.6529 9.45885 13.2043 9.45885C12.7557 9.45885 12.3255 9.63704 12.0083 9.95424C11.6911 10.2714 11.5129 10.7016 11.5129 11.1502C11.5129 11.5988 11.6911 12.029 12.0083 12.3462C12.3255 12.6634 12.7557 12.8416 13.2043 12.8416ZM10.8075 17.9157C9.95162 17.9157 9.23061 17.1962 9.55816 16.4054C9.7565 15.9266 10.0472 15.4916 10.4137 15.1251C10.7801 14.7586 11.2152 14.4679 11.694 14.2696C12.1728 14.0713 12.686 13.9692 13.2043 13.9692C13.7226 13.9692 14.2357 14.0713 14.7146 14.2696C15.1934 14.4679 15.6284 14.7586 15.9949 15.1251C16.3614 15.4916 16.6521 15.9266 16.8504 16.4054C17.178 17.1962 16.457 17.9157 15.601 17.9157H10.8075Z" fill="#F53838"/>
<path fill-rule="evenodd" clip-rule="evenodd" d="M13.2043 12.8416C13.6529 12.8416 14.0831 12.6634 14.4003 12.3462C14.7175 12.029 14.8957 11.5988 14.8957 11.1502C14.8957 10.7016 14.7175 10.2714 14.4003 9.95424C14.0831 9.63704 13.6529 9.45885 13.2043 9.45885C12.7557 9.45885 12.3255 9.63704 12.0083 9.95424C11.6911 10.2714 11.5129 10.7016 11.5129 11.1502C11.5129 11.5988 11.6911 12.029 12.0083 12.3462C12.3255 12.6634 12.7557 12.8416 13.2043 12.8416ZM10.8075 17.9157C9.95162 17.9157 9.23061 17.1962 9.55816 16.4054V16.4054C9.7565 15.9266 10.0472 15.4916 10.4137 15.1251C10.7801 14.7586 11.2152 14.4679 11.694 14.2696C12.1728 14.0713 12.686 13.9692 13.2043 13.9692C13.7226 13.9692 14.2357 14.0713 14.7146 14.2696C15.1934 14.4679 15.6284 14.7586 15.9949 15.1251C16.3614 15.4916 16.6521 15.9266 16.8504 16.4054V16.4054C17.178 17.1962 16.457 17.9157 15.601 17.9157H10.8075Z" fill="#F53838"/>
</svg>
